<svg xmlns="http://www.w3.org/2000/svg" width="86" height="127" fill="none"><path fill="#fff" d="M1.934 62.627h3.87v1.933a1.934 1.934 0 0 0 3.866 0v-1.933h3.87a1.934 1.934 0 0 0 1.934-1.934V33.616a1.934 1.934 0 0 0-1.934-1.934H9.67V22.01a1.933 1.933 0 1 0-3.867 0v9.673h-3.87A1.934 1.934 0 0 0 0 33.616v27.077a1.933 1.933 0 0 0 1.934 1.934M3.87 35.549h7.734v23.203H3.87zM25.144 43.914h3.867v2.612a1.937 1.937 0 1 0 3.87 0v-2.613h3.867a1.93 1.93 0 0 0 1.933-1.936V18.77a1.933 1.933 0 0 0-1.933-1.934H32.88V9.778a1.936 1.936 0 0 0-3.87 0v7.058h-3.867a1.934 1.934 0 0 0-1.934 1.934v23.207a1.936 1.936 0 0 0 1.934 1.937m1.934-23.21h7.739v19.353H27.08zM48.352 48.354h3.88v3.867a1.933 1.933 0 1 0 3.867 0v-3.867h3.87a1.933 1.933 0 0 0 1.933-1.933V15.47a1.934 1.934 0 0 0-1.934-1.934h-3.87V1.934a1.934 1.934 0 1 0-3.866 0v11.603h-3.87a1.934 1.934 0 0 0-1.934 1.934v30.947a1.933 1.933 0 0 0 1.924 1.936m1.936-30.944h7.737v27.077h-7.737zM71.562 56.091h3.867v3.867a1.936 1.936 0 0 0 3.87 0v-3.867h3.867a1.935 1.935 0 0 0 1.936-1.934V34.814a1.934 1.934 0 0 0-1.936-1.933h-3.867v-9.67a1.936 1.936 0 0 0-3.87 0v9.675h-3.867a1.934 1.934 0 0 0-1.933 1.933v19.344a1.934 1.934 0 0 0 1.933 1.928m1.934-19.34h7.736v15.47h-7.744z"/><path fill="#fff" d="M64.16 83.24a115.6 115.6 0 0 0-23.622-6.914V53.827c0-4.3-3.217-7.84-7.322-8.054a7.69 7.69 0 0 0-5.736 2.113 7.77 7.77 0 0 0-2.413 5.613v37.88l-7.342-7.342a6.04 6.04 0 0 0-8.531 0l-1.165 1.167a6.02 6.02 0 0 0-1.519 6.003l4.592 15.3a6.07 6.07 0 0 0 3.073 3.662l5.225 2.62a1.9 1.9 0 0 0-.136.671v11.606A1.936 1.936 0 0 0 21.197 127h42.56a1.94 1.94 0 0 0 1.786-1.194c.097-.234.147-.486.147-.74v-11.332l4.925-17.23A11.087 11.087 0 0 0 64.16 83.24m-2.345 39.88H23.13v-7.734h38.684zm5.07-27.69-4.594 16.079H27.303a1.7 1.7 0 0 0-.418-.021c-.084 0-.169.015-.12.021h-.73a2.2 2.2 0 0 1-.97-.231l-9.151-4.574a2.2 2.2 0 0 1-1.109-1.316l-4.59-15.297a2.16 2.16 0 0 1 .546-2.156l1.168-1.168a2.164 2.164 0 0 1 3.06 0l7.627 7.629c.999.999 2.372 1.552 4.05 1.644a2.14 2.14 0 0 0 1.597-.56c.411-.409.651-.959.671-1.537V53.494a3.84 3.84 0 0 1 1.206-2.817 3.9 3.9 0 0 1 2.871-1.058c2.018.108 3.66 1.988 3.66 4.193v24.147a1.936 1.936 0 0 0 1.618 1.908 111.6 111.6 0 0 1 24.384 6.953 7.217 7.217 0 0 1 4.213 8.61"/></svg>