<svg xmlns="http://www.w3.org/2000/svg" width="112" height="112" fill="none"><g fill="#fff" clip-path="url('#clip0_227_32')"><path d="M56 112A56.063 56.063 0 0 1 0 56a1.848 1.848 0 1 1 3.696 0A52.314 52.314 0 0 0 105.29 73.558a1.86 1.86 0 0 1 .938-1.108 1.85 1.85 0 0 1 2.084.296 1.86 1.86 0 0 1 .592 1.326c.004.25-.042.498-.137.729A56.122 56.122 0 0 1 56 112"/><path stroke="#fff" d="M110.152 57.848A1.843 1.843 0 0 1 108.309 56a52.315 52.315 0 0 0-42.14-51.305A52.32 52.32 0 0 0 7.635 36.033h61.06a1.847 1.847 0 1 1 0 3.691H5.06a1.88 1.88 0 0 1-1.42-.54 1.85 1.85 0 0 1-.402-2.01A56 56 0 0 1 111.995 56.01a1.84 1.84 0 0 1-1.843 1.838Z"/><path d="M106.848 75.972H43.12a1.847 1.847 0 1 1 0-3.696h63.728a1.845 1.845 0 0 1 1.707 1.14 1.846 1.846 0 0 1-1.707 2.556M58.993 49.423a1.848 1.848 0 0 1-1.308-3.151l8.395-8.395-8.395-8.39a1.848 1.848 0 0 1 2.612-2.612L70 36.548a1.85 1.85 0 0 1 0 2.611l-9.703 9.699a1.83 1.83 0 0 1-1.304.565"/><path d="M52.818 85.67a1.85 1.85 0 0 1-1.303-.54l-9.673-9.703a1.837 1.837 0 0 1 0-2.607l9.673-9.703a1.847 1.847 0 1 1 2.611 2.612l-8.369 8.374 8.395 8.395a1.849 1.849 0 0 1-1.308 3.151z"/></g><defs><clipPath id="clip0_227_32"><path fill="#fff" d="M0 0h112v112H0z"/></clipPath></defs></svg>