<svg xmlns="http://www.w3.org/2000/svg" width="124" height="80" fill="none"><path stroke="url('#paint0_linear_134_769')" stroke-miterlimit="10" stroke-width="2" d="M26.059 22.482A91 91 0 0 1 24.8 12.385a3.2 3.2 0 0 1 1.63-3.033 83.93 83.93 0 0 1 73 0 3.2 3.2 0 0 1 1.63 3.033 86.8 86.8 0 0 1-31.636 61.442L64.99 77.46a3.204 3.204 0 0 1-4.12 0l-4.433-3.633a86.2 86.2 0 0 1-16.39-17.677m14.76.257a76 76 0 0 0 8.123 7.952 75.63 75.63 0 0 0 26.116-47.083 72.97 72.97 0 0 0-52.232 0m11.814 11.099v22.883m-8.581-14.302h8.58m57.21 0v5.72a5.724 5.724 0 0 1-5.721 5.722M123 28.375v22.883m-8.581-14.302H123M8.581 28.375v22.883M0 36.956h8.581m17.163 11.442a5.72 5.72 0 0 1-5.72-5.721v-5.721a5.721 5.721 0 1 1 11.441 0v5.72a5.72 5.72 0 0 1-5.72 5.722Z"/><defs><linearGradient id="paint0_linear_134_769" x1="61.5" x2="61.5" y1="1" y2="78.21" gradientUnits="userSpaceOnUse"><stop stop-color="#5A2FED"/><stop offset="1" stop-color="#C67EFF"/></linearGradient></defs></svg>