<svg width="94" height="85" fill="none" xmlns="http://www.w3.org/2000/svg"><path d="M21.553 0a2.359 2.359 0 00-2.358 2.359v80.195a2.359 2.359 0 104.717 0V2.359A2.358 2.358 0 0021.553 0zM32.56 29.221h41.802a2.359 2.359 0 100-4.717H32.56a2.359 2.359 0 000 4.717zm0 12.58h47.174a2.359 2.359 0 100-4.717H32.561a2.359 2.359 0 000 4.717zm58.181 7.862h-58.18a2.359 2.359 0 000 4.718h58.18a2.358 2.358 0 100-4.718zM32.56 66.96h21.49a2.36 2.36 0 000-4.717H32.56a2.359 2.359 0 000 4.717zM4.263 37.012A2.36 2.36 0 10.58 39.953l9.828 12.331L.58 64.614a2.36 2.36 0 103.682 2.942L15.27 53.752a2.346 2.346 0 000-2.936L4.263 37.012zM32.56 18.083h50.32a2.36 2.36 0 000-4.717H32.56a2.359 2.359 0 000 4.717z" fill="#fff"/></svg>