<svg width="104" height="109" fill="none" xmlns="http://www.w3.org/2000/svg"><g clip-path="url(#clip0_227_2)" fill="#fff"><path d="M17.002 57.399h38.283a8.512 8.512 0 008.504-8.504V23.386a8.512 8.512 0 00-8.504-8.504h-15l8.23-11.518A2.127 2.127 0 1045.055.89l-8.912 12.46-8.9-12.46a2.127 2.127 0 00-3.46 2.474l8.23 11.518h-15.01a8.513 8.513 0 00-8.505 8.504v25.509a8.512 8.512 0 008.504 8.504zM12.75 23.386a4.256 4.256 0 014.253-4.253h38.283a4.259 4.259 0 014.253 4.253v25.509a4.26 4.26 0 01-4.253 4.253H17.002a4.256 4.256 0 01-4.253-4.253V23.386z"/><path d="M23.383 42.52a6.387 6.387 0 006.379-6.38v-4.25a6.379 6.379 0 10-12.754 0v4.25a6.384 6.384 0 006.375 6.38zm-2.125-10.63a2.126 2.126 0 014.25 0v4.25a2.125 2.125 0 11-4.25 0v-4.25zm27.637 10.63a6.384 6.384 0 006.376-6.38v-4.25a6.38 6.38 0 00-8.85-6.014 6.38 6.38 0 00-3.905 6.014v4.25a6.387 6.387 0 006.379 6.38zm-2.128-10.63a2.128 2.128 0 114.253 0v4.25a2.128 2.128 0 01-4.253 0v-4.25zm21.261 59.915V70.153a2.128 2.128 0 00-2.128-2.125H50.359a19.047 19.047 0 00-28.43 0H6.383a2.125 2.125 0 00-2.125 2.125v21.652a6.379 6.379 0 104.253 0V72.281h10.522a18.975 18.975 0 00-2.018 8.504v25.5a2.126 2.126 0 002.125 2.125h34.004a2.135 2.135 0 001.976-1.308c.108-.259.164-.537.164-.817V80.776a18.976 18.976 0 00-2.018-8.504h10.522v19.525a6.378 6.378 0 104.253 0l-.014.008zM6.38 99.915a2.125 2.125 0 11.81-.16c-.258.106-.536.16-.815.16h.005zm44.645 4.253H21.258V80.785a14.882 14.882 0 1129.762 0l.006 23.383zm14.88-4.253a2.125 2.125 0 11.81-.16c-.26.106-.536.16-.816.16h.005zm3.677-37.517a2.13 2.13 0 001.503-.622L83.4 49.46l4.873 4.876a2.123 2.123 0 003.006 0l5.94-5.94 2.747 2.75a2.133 2.133 0 002.316.462 2.125 2.125 0 001.312-1.97v-8.504a2.122 2.122 0 00-1.312-1.963 2.125 2.125 0 00-.813-.162h-8.504a2.125 2.125 0 00-1.503 3.628l2.75 2.748-4.436 4.436-4.873-4.875a2.123 2.123 0 00-3.006 0L68.078 58.764a2.124 2.124 0 001.504 3.628v.006zm29.762-19.142v1.248l-1.247-1.247h1.247z"/></g><defs><clipPath id="clip0_227_2"><path fill="#fff" d="M0 0h103.594v108.419H0z"/></clipPath></defs></svg>