<svg width="120" height="116" fill="none" xmlns="http://www.w3.org/2000/svg"><path d="M54.572 79.565H6.576a6.635 6.635 0 01-4.636-1.924A6.56 6.56 0 010 73.034V42.986a6.56 6.56 0 011.938-4.612 6.635 6.635 0 014.638-1.926h47.996a6.634 6.634 0 014.634 1.928 6.56 6.56 0 011.935 4.61v30.08a6.56 6.56 0 01-1.949 4.585 6.635 6.635 0 01-4.62 1.914zM6.576 40.441c-.671 0-1.314.264-1.79.735a2.512 2.512 0 00-.744 1.777v30.08c.002.668.27 1.307.745 1.778a2.54 2.54 0 001.789.735h47.996a2.54 2.54 0 001.785-.738 2.51 2.51 0 00.742-1.774V42.986a2.512 2.512 0 00-.742-1.775 2.54 2.54 0 00-1.785-.738l-47.996-.032zm83.568-15.61H68.577a6.05 6.05 0 01-4.255-1.76 5.982 5.982 0 01-1.765-4.232V5.992a5.982 5.982 0 011.765-4.233A6.05 6.05 0 0168.577 0h21.567a6.05 6.05 0 014.26 1.757 5.982 5.982 0 011.767 4.235V18.84a5.982 5.982 0 01-1.768 4.235 6.05 6.05 0 01-4.26 1.757zM68.577 4.026a1.99 1.99 0 00-1.403.578c-.373.37-.582.872-.582 1.395v12.847c0 .523.21 1.025.582 1.395.372.37.877.578 1.403.578h21.567a1.99 1.99 0 001.403-.578c.372-.37.582-.872.582-1.395V5.999c0-.523-.21-1.025-.582-1.395a1.99 1.99 0 00-1.403-.578H68.577zM90.144 116H68.577a6.05 6.05 0 01-4.255-1.759 5.984 5.984 0 01-1.765-4.233V97.161a5.982 5.982 0 011.765-4.233 6.05 6.05 0 014.255-1.76h21.567a6.05 6.05 0 014.26 1.758 5.982 5.982 0 011.767 4.235v12.847a5.982 5.982 0 01-1.768 4.235 6.054 6.054 0 01-4.26 1.757zM68.577 95.194a1.99 1.99 0 00-1.403.578c-.373.37-.582.872-.582 1.396v12.846c0 .524.21 1.025.582 1.396.372.37.877.578 1.403.578h21.567a1.99 1.99 0 001.403-.578 1.97 1.97 0 00.582-1.396V97.168a1.97 1.97 0 00-.582-1.396 1.99 1.99 0 00-1.403-.578H68.577zm45.396-24.785H92.406a6.051 6.051 0 01-4.255-1.76 5.982 5.982 0 01-1.765-4.232V51.57a5.982 5.982 0 011.765-4.233 6.05 6.05 0 014.255-1.76h21.567a6.052 6.052 0 014.26 1.758A5.982 5.982 0 01120 51.57v12.847a5.982 5.982 0 01-1.767 4.235 6.052 6.052 0 01-4.26 1.757zM92.406 49.597a1.99 1.99 0 00-1.403.578c-.372.37-.581.872-.581 1.395v12.847c0 .523.209 1.025.581 1.395.372.37.877.578 1.403.578h21.567c.527 0 1.031-.208 1.404-.578.372-.37.581-.872.581-1.395V51.57c0-.523-.209-1.025-.581-1.395a1.992 1.992 0 00-1.404-.578H92.406z" fill="#fff"/><path d="M88.404 60.003H59.117a2.029 2.029 0 01-1.356-.628 2.007 2.007 0 010-2.764 2.03 2.03 0 011.356-.627h29.287a2.034 2.034 0 011.506.546 2.01 2.01 0 01.469 2.26 2.011 2.011 0 01-1.166 1.094 2.034 2.034 0 01-.809.119zM66.341 49.597h-7.224a2.029 2.029 0 01-1.356-.628 2.007 2.007 0 010-2.764 2.03 2.03 0 011.356-.627h7.224a11.047 11.047 0 007.776-3.208 10.92 10.92 0 003.226-7.731v-11.84c.03-.513.255-.996.63-1.349a2.03 2.03 0 012.78 0c.376.353.602.836.632 1.349v11.84a14.928 14.928 0 01-4.41 10.573 15.1 15.1 0 01-10.634 4.385zM79.36 95.175a2.03 2.03 0 01-1.427-.592 2.007 2.007 0 01-.59-1.421v-11.84a10.914 10.914 0 00-3.227-7.73 11.04 11.04 0 00-7.775-3.203h-7.224a2.03 2.03 0 01-1.432-.59 2.007 2.007 0 010-2.846 2.03 2.03 0 011.432-.59h7.224a15.101 15.101 0 0110.634 4.386 14.928 14.928 0 014.41 10.573v11.84c0 .534-.213 1.046-.593 1.423a2.03 2.03 0 01-1.431.59z" fill="#fff"/></svg>