<svg width="86" height="127" fill="none" xmlns="http://www.w3.org/2000/svg"><path d="M1.934 62.627h3.87v1.933a1.934 1.934 0 003.866 0v-1.933h3.87a1.934 1.934 0 001.934-1.934V33.616a1.934 1.934 0 00-1.934-1.934H9.67V22.01a1.933 1.933 0 10-3.867 0v9.673h-3.87A1.934 1.934 0 000 33.616v27.077a1.933 1.933 0 001.934 1.934zM3.87 35.549h7.734v23.203H3.87V35.549zm21.274 8.364h3.867v2.613a1.937 1.937 0 103.87 0v-2.613h3.867a1.932 1.932 0 001.933-1.936V18.77a1.933 1.933 0 00-1.933-1.934H32.88V9.778a1.936 1.936 0 00-3.87 0v7.058h-3.867a1.934 1.934 0 00-1.934 1.934v23.207a1.936 1.936 0 001.934 1.937zm1.934-23.21h7.739v19.354H27.08l-.002-19.354zm21.274 27.651h3.88v3.867a1.933 1.933 0 103.867 0v-3.867h3.87a1.933 1.933 0 001.933-1.933V15.47a1.934 1.934 0 00-1.934-1.934h-3.87V1.934a1.934 1.934 0 10-3.866 0v11.603h-3.87a1.934 1.934 0 00-1.934 1.934v30.947a1.933 1.933 0 001.924 1.936zm1.936-30.944h7.737v27.077h-7.737V17.41zm21.274 38.681h3.867v3.867a1.936 1.936 0 003.87 0v-3.867h3.867a1.935 1.935 0 001.936-1.934V34.814a1.934 1.934 0 00-1.936-1.933h-3.867v-9.67a1.936 1.936 0 00-3.87 0v9.675h-3.867a1.934 1.934 0 00-1.933 1.933v19.344a1.934 1.934 0 001.933 1.928zm1.934-19.34h7.736v15.47h-7.744l.008-15.47z" fill="#fff"/><path d="M64.16 83.24a115.612 115.612 0 00-23.622-6.914V53.827c0-4.3-3.217-7.84-7.322-8.054a7.685 7.685 0 00-5.736 2.113 7.767 7.767 0 00-2.413 5.613v37.88l-7.342-7.342a6.042 6.042 0 00-8.531 0l-1.165 1.167a6.016 6.016 0 00-1.519 6.003l4.592 15.3a6.067 6.067 0 003.073 3.662l5.225 2.62a1.903 1.903 0 00-.136.671v11.606A1.936 1.936 0 0021.197 127h42.56a1.936 1.936 0 001.786-1.194c.097-.234.147-.486.147-.74v-11.332l4.925-17.23A11.087 11.087 0 0064.16 83.24zm-2.345 39.88H23.13v-7.734h38.684v7.734zm5.07-27.69l-4.594 16.079H27.303a1.717 1.717 0 00-.418-.021c-.084 0-.169.015-.12.021h-.73a2.18 2.18 0 01-.97-.231l-9.151-4.574a2.189 2.189 0 01-1.109-1.316l-4.59-15.297a2.161 2.161 0 01.546-2.156l1.168-1.168a2.164 2.164 0 013.06 0l7.627 7.629c.999.999 2.372 1.552 4.05 1.644a2.142 2.142 0 001.597-.56 2.28 2.28 0 00.671-1.537V53.494a3.84 3.84 0 011.206-2.817 3.898 3.898 0 012.871-1.058c2.018.108 3.66 1.988 3.66 4.193v24.147a1.936 1.936 0 001.618 1.908 111.577 111.577 0 0124.384 6.953 7.217 7.217 0 014.213 8.61z" fill="#fff"/></svg>