<svg width="88" height="123" fill="none" xmlns="http://www.w3.org/2000/svg"><path d="M43.7 120.754v-18.13m0 0h19.671c.15 0 .273-.122.273-.272v-16.68a.272.272 0 00-.273-.272H24.028a.272.272 0 00-.271.272v16.68c0 .15.121.272.271.272H43.7zm0-18.13V69.989m0 0h29.643c.15 0 .272-.122.272-.272v-16.68a.272.272 0 00-.272-.272H14.057a.272.272 0 00-.272.272v16.68c0 .15.121.272.272.272H43.7zm0-19.037V38.261m0-18.13V2m0 18.13H2.272a.272.272 0 00-.272.272v16.68c0 .15.122.272.272.272h82.856c.15 0 .272-.121.272-.272v-16.68a.272.272 0 00-.272-.272H43.7z" stroke="#fff" stroke-width="4" stroke-linecap="round"/></svg>