<svg width="118" height="120" fill="none" xmlns="http://www.w3.org/2000/svg"><path d="M59.046 119.816c-20.653 0-37.455-16.802-37.455-37.454s16.802-37.455 37.455-37.455S96.5 61.709 96.5 82.362s-16.802 37.454-37.454 37.454zm0-69.22c-17.516 0-31.762 14.25-31.762 31.763 0 17.512 14.25 31.762 31.762 31.762s31.762-14.25 31.762-31.762-14.247-31.762-31.762-31.762z" fill="#fff"/><path d="M74.626 97.303c-.498 0-.987-.132-1.418-.381L56.2 87.109V61.128a2.846 2.846 0 015.69 0v22.7l14.161 8.165a2.846 2.846 0 01-1.425 5.31zM61.89 45.014H56.2v-3.81h-3.068v-5.69h11.826v5.69H61.89v3.81z" fill="#fff"/><path d="M11.85 65.547H3m101.259 2.313h10.447M98.648 44.603l13.5-7.795m-29.989-9.541l3.065-5.309M59.211 20.5V3M35.954 26.111l-3.24-5.612M18.619 42.6L7.425 36.138" stroke="#fff" stroke-width="4.956" stroke-miterlimit="10" stroke-linecap="round"/></svg>