<svg width="124" height="80" fill="none" xmlns="http://www.w3.org/2000/svg"><path d="M26.059 22.482A90.967 90.967 0 0124.8 12.385a3.204 3.204 0 011.63-3.033 83.926 83.926 0 0173 0 3.205 3.205 0 011.63 3.033 86.789 86.789 0 01-31.636 61.442L64.99 77.46a3.204 3.204 0 01-4.12 0l-4.433-3.633a86.164 86.164 0 01-16.39-17.677m14.76.257a76.232 76.232 0 008.123 7.952 75.63 75.63 0 0026.116-47.083 72.97 72.97 0 00-52.232 0m11.814 11.099v22.883m-8.581-14.302h8.58m57.21 0v5.72a5.724 5.724 0 01-5.721 5.722M123 28.375v22.883m-8.581-14.302H123M8.581 28.375v22.883M0 36.956h8.581m17.163 11.442a5.72 5.72 0 01-5.72-5.721v-5.721a5.721 5.721 0 1111.441 0v5.72a5.72 5.72 0 01-5.72 5.722z" stroke="url(#paint0_linear_134_769)" stroke-width="2" stroke-miterlimit="10"/><defs><linearGradient id="paint0_linear_134_769" x1="61.5" y1="1" x2="61.5" y2="78.21" gradientUnits="userSpaceOnUse"><stop stop-color="#5A2FED"/><stop offset="1" stop-color="#C67EFF"/></linearGradient></defs></svg>