<svg width="105" height="94" fill="none" xmlns="http://www.w3.org/2000/svg"><g clip-path="url(#clip0_227_8)" fill="#fff"><path d="M50.355 27.07v2.47c-3.432.28-5.52 1.27-7.219 2.98-1.699 1.71-2.471 3.896-2.471 6.567a8.9 8.9 0 001.344 5.028 8.386 8.386 0 003.26 3.015 22.123 22.123 0 005.086 1.922V59.88a5.006 5.006 0 01-2.351-1.281 5.354 5.354 0 01-1.333-1.848c-.309-.675-.635-1.653-1.058-2.923a2.483 2.483 0 00-.978-1.378 3.1 3.1 0 00-1.762-.486 2.9 2.9 0 00-2.174.898 2.803 2.803 0 00-.87 2.013 8.007 8.007 0 00.653 3.083 10.193 10.193 0 002.013 3.026 10.582 10.582 0 003.25 2.437c1.428.748 3 1.179 4.61 1.264v2.935c0 .566.171 1.118.492 1.584a1.476 1.476 0 001.27.515c.606 0 .572-.212.72-.63.15-.417-.194-1.086-.194-2.001v-2.403c2.86-.189 4.622-.772 6.24-1.75a10.525 10.525 0 003.908-3.781 10.41 10.41 0 001.367-4.971 9.574 9.574 0 00-.715-3.901 8.58 8.58 0 00-2.197-3.06 11.788 11.788 0 00-3.53-1.888 41.085 41.085 0 00-5.073-1.447v-9.685c2.288.635 3.678 1.928 4.187 3.867a3.152 3.152 0 003.203 2.466 3.1 3.1 0 002.186-.847 2.82 2.82 0 00.91-2.014 5.492 5.492 0 00-.544-2.288 9.775 9.775 0 00-1.602-2.448 10.214 10.214 0 00-3.586-2.328 17.658 17.658 0 00-4.754-1.024V27.07c0-1.27-.16-1.91-1.144-1.91-.984 0-1.144.629-1.144 1.91zm0 15.93a6.293 6.293 0 01-2.969-1.716c-.68-.63-.95-1.556-.95-2.786s.252-2.248.985-2.86a8.928 8.928 0 012.934-1.533V43zm2.288 6.916c1.716.509 3.324 1.144 4.153 1.876a4.131 4.131 0 011.493 3.129c0 1.258-.795 2.362-1.648 3.306-.852.944-2.288 1.579-4.004 1.888l.006-10.2zM2.511 14.92h23.51a52.66 52.66 0 017.248-4.577H2.51a2.288 2.288 0 00-2.236 2.288A2.254 2.254 0 002.51 14.92zm98.754 65.21H77.812c-1.75 2.288-4.13 3.432-7.105 4.576h30.558a2.19 2.19 0 001.577-.627 2.186 2.186 0 00.659-1.564c.052-1.241-.64-2.385-2.236-2.385z"/><path d="M104.348 10.521l-8.906-8.9a2.225 2.225 0 00-3.158 0 2.528 2.528 0 000 3.397l5.085 5.326s-47.775-.2-47.924-.183c-3.083.429-8.963 1.144-15.192 4.341a37.508 37.508 0 00.034 66.2H7.63l5.09-5.2a2.288 2.288 0 000-3.208 2.237 2.237 0 00-3.163 0l-8.9 8.889a2.22 2.22 0 000 3.152l8.9 8.9a2.219 2.219 0 001.58.652 2.25 2.25 0 001.584-.652 2.402 2.402 0 000-3.289L7.63 84.735h48.301c5.48-.572 10.056-1.716 13.614-4.004h-.143a37.593 37.593 0 00-.057-66.354h28.029l-5.085 5.085a2.231 2.231 0 103.157 3.152l8.907-8.901a2.242 2.242 0 000-3.163l-.006-.029zM84.813 47.428a32.972 32.972 0 11-32.97-32.971 33.006 33.006 0 0132.97 32.97z"/></g><defs><clipPath id="clip0_227_8"><path fill="#fff" transform="translate(0 .962)" d="M0 0h105v92.896H0z"/></clipPath></defs></svg>