<svg width="102" height="115" fill="none" xmlns="http://www.w3.org/2000/svg"><path d="M10.867 55.958H2.28a.28.28 0 00-.28.28V95.23c0 .155.125.28.28.28h8.587m0-39.552h8.586a.28.28 0 01.28.28V95.23a.28.28 0 01-.28.28h-8.586m0-39.552V39.334m0 72.8V95.51m80.266-39.552h-8.586a.28.28 0 00-.28.28V95.23c0 .155.125.28.28.28h8.586m0-39.552h8.587a.28.28 0 01.28.28V95.23a.28.28 0 01-.28.28h-8.587m0-39.552V39.334m0 72.8V95.51M51 18.837h-8.587a.28.28 0 00-.28.28v39.5c0 .154.126.28.28.28H51m0-40.06h8.587a.28.28 0 01.28.28v39.5a.28.28 0 01-.28.28H51m0-40.06V2m0 73.733V58.897" stroke="#fff" stroke-width="4" stroke-linecap="round"/></svg>