<svg width="86" height="86" fill="none" xmlns="http://www.w3.org/2000/svg"><path d="M59.435 59.435l16.471 16.471m-49.34-58.471l3.651 3.652v14.609m0 0a5.478 5.478 0 110 10.956 5.478 5.478 0 010-10.956zm14.61-3.652v12.782l3.651 3.652M24.74 13.783l-3.652-3.653m-1.826 49.305l-3.652-3.652M43 4.653L39.348 1m16.435 54.783L52.13 52.13M15.61 32.043v12.783l10.956 10.957H43l7.304 7.304h3.652l3.653 3.652v3.652l3.652 3.652h3.652l1.826 1.827v3.652L72.217 85H85V74.043l-27.391-27.39V19.26L46.652 8.304m-7.304 5.479L28.39 2.826h-9.13L1 21.087v20.087L11.957 52.13m32.87-31.043a5.479 5.479 0 11-.001 10.958 5.479 5.479 0 010-10.958zm-29.218 0a5.479 5.479 0 110 10.958 5.479 5.479 0 010-10.958z" stroke="url(#paint0_linear_134_757)" stroke-width="1.5" stroke-miterlimit="10"/><defs><linearGradient id="paint0_linear_134_757" x1="43" y1="1" x2="43" y2="85" gradientUnits="userSpaceOnUse"><stop stop-color="#5A2FED"/><stop offset="1" stop-color="#C67EFF"/></linearGradient></defs></svg>