<svg width="84" height="81" fill="none" xmlns="http://www.w3.org/2000/svg"><path d="M69.255 67.381v11.714h-54.51V67.381m11.636-41v-9.762a15.619 15.619 0 1131.238 0v9.762m-23.428 0v-9.762a7.81 7.81 0 0115.618 0v9.762m1.23 15.19l2.675-3.476h21.477m0 0a3.905 3.905 0 107.809 0 3.905 3.905 0 00-7.81 0zM51.038 58.05l2.675 3.475H75.19m0 0a3.905 3.905 0 107.809 0 3.905 3.905 0 00-7.81 0zM32.96 41.57l-2.675-3.476H8.81m0 0a3.905 3.905 0 11-7.81 0 3.905 3.905 0 017.81 0zM32.96 58.05l-2.674 3.475H8.81m0 0a3.905 3.905 0 11-7.81 0 3.905 3.905 0 017.81 0zm5.935-29.286v-5.857h54.51v5.857m0 11.831v11.598M14.745 44.07v11.598M49.81 49.81a7.81 7.81 0 10-11.715 6.736v12.788h7.81V56.545a7.81 7.81 0 003.904-6.736z" stroke="url(#paint0_linear_134_768)" stroke-width="2" stroke-miterlimit="10"/><defs><linearGradient id="paint0_linear_134_768" x1="42" y1="1" x2="42" y2="79.095" gradientUnits="userSpaceOnUse"><stop stop-color="#5A2FED"/><stop offset="1" stop-color="#C67EFF"/></linearGradient></defs></svg>