<svg xmlns="http://www.w3.org/2000/svg" width="105" height="94" fill="none"><g fill="#fff" clip-path="url('#clip0_227_8')"><path d="M50.355 27.07v2.47c-3.432.28-5.52 1.27-7.219 2.98s-2.471 3.896-2.471 6.567a8.9 8.9 0 0 0 1.344 5.028 8.4 8.4 0 0 0 3.26 3.015 22 22 0 0 0 5.086 1.922V59.88a5 5 0 0 1-2.351-1.281 5.35 5.35 0 0 1-1.333-1.848c-.309-.675-.635-1.653-1.058-2.923a2.48 2.48 0 0 0-.978-1.378 3.1 3.1 0 0 0-1.762-.486 2.9 2.9 0 0 0-2.174.898 2.8 2.8 0 0 0-.87 2.013 8 8 0 0 0 .653 3.083 10.2 10.2 0 0 0 2.013 3.026 10.6 10.6 0 0 0 3.25 2.437c1.428.748 3 1.179 4.61 1.264v2.935c0 .566.171 1.118.492 1.584a1.48 1.48 0 0 0 1.27.515c.606 0 .572-.212.72-.63.15-.417-.194-1.086-.194-2.001v-2.403c2.86-.189 4.622-.772 6.24-1.75a10.5 10.5 0 0 0 3.908-3.781 10.4 10.4 0 0 0 1.367-4.971 9.6 9.6 0 0 0-.715-3.901 8.6 8.6 0 0 0-2.197-3.06 11.8 11.8 0 0 0-3.53-1.888 41 41 0 0 0-5.073-1.447v-9.685c2.288.635 3.678 1.928 4.187 3.867a3.15 3.15 0 0 0 3.203 2.466 3.1 3.1 0 0 0 2.186-.847 2.82 2.82 0 0 0 .91-2.014 5.5 5.5 0 0 0-.544-2.288 9.8 9.8 0 0 0-1.602-2.448 10.2 10.2 0 0 0-3.586-2.328 17.7 17.7 0 0 0-4.754-1.024V27.07c0-1.27-.16-1.91-1.144-1.91s-1.144.629-1.144 1.91m0 15.93a6.3 6.3 0 0 1-2.969-1.716c-.68-.63-.95-1.556-.95-2.786s.252-2.248.985-2.86a8.9 8.9 0 0 1 2.934-1.533zm2.288 6.916c1.716.509 3.324 1.144 4.153 1.876a4.13 4.13 0 0 1 1.493 3.129c0 1.258-.795 2.362-1.648 3.306s-2.288 1.579-4.004 1.888zM2.511 14.92h23.51a52.7 52.7 0 0 1 7.248-4.577H2.51a2.29 2.29 0 0 0-2.236 2.288A2.254 2.254 0 0 0 2.51 14.92M101.265 80.13H77.812c-1.75 2.288-4.13 3.432-7.105 4.576h30.558a2.2 2.2 0 0 0 1.577-.627 2.186 2.186 0 0 0 .659-1.564c.052-1.241-.64-2.385-2.236-2.385"/><path d="m104.348 10.521-8.906-8.9a2.225 2.225 0 0 0-3.158 0 2.53 2.53 0 0 0 0 3.397l5.085 5.326s-47.775-.2-47.924-.183c-3.083.429-8.963 1.144-15.192 4.341a37.508 37.508 0 0 0 .034 66.2H7.63l5.09-5.2a2.29 2.29 0 0 0 0-3.208 2.237 2.237 0 0 0-3.163 0l-8.9 8.889a2.22 2.22 0 0 0 0 3.152l8.9 8.9a2.22 2.22 0 0 0 1.58.652c.593 0 1.162-.234 1.584-.652a2.4 2.4 0 0 0 0-3.289L7.63 84.735h48.301c5.48-.572 10.056-1.716 13.614-4.004h-.143a37.593 37.593 0 0 0-.057-66.354h28.029l-5.085 5.085a2.231 2.231 0 1 0 3.157 3.152l8.907-8.901a2.24 2.24 0 0 0 0-3.163zM84.813 47.428a32.972 32.972 0 1 1-32.97-32.971 33.006 33.006 0 0 1 32.97 32.97"/></g><defs><clipPath id="clip0_227_8"><path fill="#fff" d="M0 .962h105v92.896H0z"/></clipPath></defs></svg>