<svg xmlns="http://www.w3.org/2000/svg" width="88" height="123" fill="none"><path stroke="#fff" stroke-linecap="round" stroke-width="4" d="M43.7 120.754v-18.13m0 0h19.671c.15 0 .273-.122.273-.272v-16.68a.27.27 0 0 0-.273-.272H24.03a.27.27 0 0 0-.273.272v16.68c0 .15.122.272.273.272zm0-18.13V69.989m0 0h29.643c.15 0 .272-.122.272-.272v-16.68a.27.27 0 0 0-.272-.272H14.057a.27.27 0 0 0-.272.272v16.68c0 .15.121.272.272.272zm0-19.037V38.261m0-18.13V2m0 18.13H2.272a.27.27 0 0 0-.272.272v16.68c0 .15.122.272.272.272h82.856c.15 0 .272-.121.272-.272v-16.68a.27.27 0 0 0-.272-.272z"/></svg>