<svg xmlns="http://www.w3.org/2000/svg" width="104" height="109" fill="none"><g fill="#fff" clip-path="url('#clip0_227_2')"><path d="M17.002 57.399h38.283a8.51 8.51 0 0 0 8.504-8.504V23.386a8.51 8.51 0 0 0-8.504-8.504h-15l8.23-11.518A2.127 2.127 0 1 0 45.055.89L36.143 13.35 27.243.89a2.127 2.127 0 0 0-3.46 2.474l8.23 11.518h-15.01a8.513 8.513 0 0 0-8.505 8.504v25.509a8.51 8.51 0 0 0 8.504 8.504M12.75 23.386a4.256 4.256 0 0 1 4.253-4.253h38.283a4.26 4.26 0 0 1 4.253 4.253v25.509a4.26 4.26 0 0 1-4.253 4.253H17.002a4.256 4.256 0 0 1-4.253-4.253z"/><path d="M23.383 42.52a6.387 6.387 0 0 0 6.379-6.38v-4.25a6.379 6.379 0 1 0-12.754 0v4.25a6.384 6.384 0 0 0 6.375 6.38m-2.125-10.63a2.126 2.126 0 0 1 4.25 0v4.25a2.125 2.125 0 1 1-4.25 0zM48.895 42.52a6.384 6.384 0 0 0 6.376-6.38v-4.25a6.38 6.38 0 0 0-8.85-6.014 6.38 6.38 0 0 0-3.905 6.014v4.25a6.387 6.387 0 0 0 6.379 6.38m-2.128-10.63a2.128 2.128 0 1 1 4.253 0v4.25a2.128 2.128 0 0 1-4.253 0zM68.028 91.805V70.153a2.13 2.13 0 0 0-2.128-2.125H50.359a19.047 19.047 0 0 0-28.43 0H6.383a2.125 2.125 0 0 0-2.125 2.125v21.652a6.379 6.379 0 1 0 4.253 0V72.281h10.522a19 19 0 0 0-2.018 8.504v25.5a2.126 2.126 0 0 0 2.125 2.125h34.004a2.135 2.135 0 0 0 1.976-1.308c.108-.259.164-.537.164-.817V80.776a19 19 0 0 0-2.018-8.504h10.522v19.525a6.378 6.378 0 1 0 4.253 0zM6.38 99.915a2.125 2.125 0 1 1 .81-.16c-.258.106-.536.16-.815.16zm44.645 4.253H21.258V80.785a14.882 14.882 0 1 1 29.762 0zm14.88-4.253a2.125 2.125 0 1 1 .81-.16c-.26.106-.536.16-.816.16zM69.582 62.398c.563 0 1.104-.224 1.503-.622L83.4 49.46l4.873 4.875a2.123 2.123 0 0 0 3.006 0l5.94-5.94 2.747 2.75a2.13 2.13 0 0 0 2.316.462 2.125 2.125 0 0 0 1.312-1.97v-8.504a2.12 2.12 0 0 0-1.312-1.963 2.1 2.1 0 0 0-.813-.162h-8.504a2.125 2.125 0 0 0-1.503 3.628l2.75 2.748-4.436 4.436-4.873-4.875a2.123 2.123 0 0 0-3.006 0L68.079 58.764a2.124 2.124 0 0 0 1.503 3.628zm29.762-19.141v1.247l-1.247-1.247z"/></g><defs><clipPath id="clip0_227_2"><path fill="#fff" d="M0 0h103.594v108.419H0z"/></clipPath></defs></svg>