<svg xmlns="http://www.w3.org/2000/svg" width="94" height="85" fill="none"><path fill="#fff" d="M21.553 0a2.36 2.36 0 0 0-2.358 2.359v80.195a2.359 2.359 0 1 0 4.717 0V2.359A2.36 2.36 0 0 0 21.553 0M32.56 29.221h41.802a2.359 2.359 0 1 0 0-4.717H32.56a2.359 2.359 0 0 0 0 4.717M32.56 41.801h47.174a2.359 2.359 0 1 0 0-4.717H32.561a2.359 2.359 0 0 0 0 4.717M90.741 49.663h-58.18a2.359 2.359 0 0 0 0 4.718h58.18a2.358 2.358 0 1 0 0-4.718M32.56 66.96h21.49a2.36 2.36 0 0 0 0-4.717H32.56a2.359 2.359 0 0 0 0 4.717M4.263 37.012A2.36 2.36 0 1 0 .58 39.953l9.828 12.331L.58 64.614a2.36 2.36 0 1 0 3.682 2.942L15.27 53.753a2.346 2.346 0 0 0 0-2.936zM32.56 18.083h50.32a2.36 2.36 0 0 0 0-4.717H32.56a2.359 2.359 0 0 0 0 4.717"/></svg>