<svg xmlns="http://www.w3.org/2000/svg" width="84" height="81" fill="none"><path stroke="url('#paint0_linear_134_768')" stroke-miterlimit="10" stroke-width="2" d="M69.255 67.381v11.714h-54.51V67.381m11.636-41v-9.762a15.619 15.619 0 1 1 31.238 0v9.762m-23.428 0v-9.762a7.81 7.81 0 0 1 15.618 0v9.762m1.23 15.19 2.675-3.476h21.477m0 0a3.905 3.905 0 1 0 7.809 0 3.905 3.905 0 0 0-7.81 0ZM51.039 58.05l2.675 3.475h21.477m0 0a3.905 3.905 0 1 0 7.809 0 3.905 3.905 0 0 0-7.81 0ZM32.96 41.57l-2.675-3.476H8.81m0 0a3.905 3.905 0 1 1-7.81 0 3.905 3.905 0 0 1 7.81 0ZM32.96 58.05l-2.674 3.475H8.81m0 0a3.905 3.905 0 1 1-7.81 0 3.905 3.905 0 0 1 7.81 0Zm5.935-29.286v-5.857h54.51v5.857m0 11.831v11.598m-54.51-11.598v11.598m35.065-5.858a7.81 7.81 0 1 0-11.715 6.736v12.788h7.81V56.545a7.81 7.81 0 0 0 3.904-6.736Z"/><defs><linearGradient id="paint0_linear_134_768" x1="42" x2="42" y1="1" y2="79.095" gradientUnits="userSpaceOnUse"><stop stop-color="#5A2FED"/><stop offset="1" stop-color="#C67EFF"/></linearGradient></defs></svg>